<?xml version="1.0" encoding="UTF-8" standalone="no"?>
<svg width="1328px" height="217px" viewBox="0 0 1328 217" version="1.1" xmlns="http://www.w3.org/2000/svg" xmlns:xlink="http://www.w3.org/1999/xlink" xmlns:sketch="http://www.bohemiancoding.com/sketch/ns">
    <title>graph</title>
    <description>Created with Sketch (http://www.bohemiancoding.com/sketch)</description>
    <defs></defs>
    <g id="Page-1" stroke="none" stroke-width="1" fill="none" fill-rule="evenodd" sketch:type="MSPage">
        <g id="Graph-SVG" sketch:type="MSLayerGroup">
            <g id="Page-1" sketch:type="MSShapeGroup">
                <g id="Ad-Set-3">
                    <g id="Ad-1">
                        <g id="Ad-2">
                            <g id="wetpaint-bg">
                                <g id="Background">
                                    <path d="M0.123600006,209 L280,186.5 L514,131.5 L709.5,146 L921.5,65.5 L1038.5,96 L1164,65.5 L1328.5,0.5 L1328.5,217 L0.1236,217 L0.123600006,209 Z" id="Shape" opacity="0.8118" fill="#6FB493"></path>
                                    <path d="M0,209.5 L177,179.000002 L378,189 L578,161 L716,86 L927.5,118.5 L1070,46 L1271.5,61 L1328.59678,38.5974441" id="Shape" stroke="#6DDEA6" stroke-width="2" opacity="0.6784"></path>
                                    <g id="Group" transform="translate(173.000000, 42.000000)" stroke="#6DDEA6">
                                        <path d="M1095,19 C1095,16.7908 1096.7908,15 1099,15 C1101.2092,15 1103,16.7908 1103,19 C1103,21.2092 1101.2092,23 1099,23 C1096.7908,23 1095,21.2092 1095,19 L1095,19 L1095,19 Z" id="Ellipse6"></path>
                                        <path d="M750,76 C750,73.7908 751.7908,72 754,72 C756.2092,72 758,73.7908 758,76 C758,78.2092 756.2092,80 754,80 C751.7908,80 750,78.2092 750,76 L750,76 L750,76 Z" id="Ellipse4"></path>
                                        <path d="M893,4 C893,1.7908 894.7908,0 897,0 C899.2092,0 901,1.7908 901,4 C901,6.2092 899.2092,8 897,8 C894.7908,8 893,6.2092 893,4 L893,4 L893,4 Z" id="Ellipse5"></path>
                                        <path d="M539,44 C539,41.7908 540.7908,40 543,40 C545.2092,40 547,41.7908 547,44 C547,46.2092 545.2092,48 543,48 C540.7908,48 539,46.2092 539,44 L539,44 L539,44 Z" id="Ellipse2"></path>
                                        <path d="M401,119 C401,116.7908 402.7908,115 405,115 C407.2092,115 409,116.7908 409,119 C409,121.2092 407.2092,123 405,123 C402.7908,123 401,121.2092 401,119 L401,119 L401,119 Z" id="Ellipse"></path>
                                        <path d="M201,147 C201,144.7908 202.7908,143 205,143 C207.2092,143 209,144.7908 209,147 C209,149.2092 207.2092,151 205,151 C202.7908,151 201,149.2092 201,147 L201,147 L201,147 Z" id="Ellipse3"></path>
                                        <path d="M0,137 C0,134.7908 1.7908,133 4,133 C6.2092,133 8,134.7908 8,137 C8,139.2092 6.2092,141 4,141 C1.7908,141 0,139.2092 0,137 L0,137 L0,137 Z" id="Ellipse7"></path>
                                    </g>
                                </g>
                            </g>
                        </g>
                    </g>
                </g>
            </g>
        </g>
    </g>
</svg>