<?xml version="1.0" encoding="UTF-8" standalone="no"?>
<svg width="1000px" height="1000px" viewBox="0 0 1000 1000" version="1.1" xmlns="http://www.w3.org/2000/svg" xmlns:xlink="http://www.w3.org/1999/xlink" xmlns:sketch="http://www.bohemiancoding.com/sketch/ns">
    <title>keyword-performance</title>
    <description>Created with Sketch (http://www.bohemiancoding.com/sketch)</description>
    <defs></defs>
    <g id="Page-1" stroke="none" stroke-width="1" fill="none" fill-rule="evenodd" sketch:type="MSPage">
        <rect id="Rectangle-1" stroke="#979797" fill="#F3F3F3" sketch:type="MSShapeGroup" x="-404" y="-160" width="1602" height="3060"></rect>
        <g id="control-panel-5-icon-+-control-panel-5-icon-+-magnifier-5-icon" sketch:type="MSLayerGroup" transform="translate(163.000000, 310.000000)">
            <path d="M385.353535,203.762136 C385.353535,233.11983 361.611869,256.917476 332.323232,256.917476 C303.03548,256.917476 279.292929,233.11983 279.292929,203.762136 C279.292929,174.405328 303.03548,150.606796 332.323232,150.606796 C361.611869,150.606796 385.353535,174.405328 385.353535,203.762136 L385.353535,203.762136 Z M332.323232,283.495146 C326.249495,283.495146 320.333965,282.806784 314.646465,281.508022 L314.646465,317.160194 C314.646465,326.946092 322.560354,334.878641 332.323232,334.878641 C342.086111,334.878641 350,326.946092 350,317.160194 L350,281.508022 C344.3125,282.806784 338.39697,283.495146 332.323232,283.495146 L332.323232,283.495146 Z M332.323232,124.029126 C338.39697,124.029126 344.3125,124.717488 350,126.01625 L350,23.0339806 C350,13.2480825 342.086111,5.31553398 332.323232,5.31553398 C322.560354,5.31553398 314.646465,13.2480825 314.646465,23.0339806 L314.646465,126.01625 C320.333965,124.717488 326.249495,124.029126 332.323232,124.029126 L332.323232,124.029126 Z M474.621212,117.82767 C485.343056,117.82767 494.065657,126.570837 494.065657,137.317961 C494.065657,148.065085 485.343056,156.808252 474.621212,156.808252 C463.899369,156.808252 455.176768,148.065085 455.176768,137.317961 C455.176768,126.570837 463.899369,117.82767 474.621212,117.82767 L474.621212,117.82767 Z M474.621212,84.1626214 C445.33346,84.1626214 421.590909,107.961153 421.590909,137.317961 C421.590909,166.675655 445.33346,190.473301 474.621212,190.473301 C503.909848,190.473301 527.651515,166.675655 527.651515,137.317961 C527.651515,107.961153 503.909848,84.1626214 474.621212,84.1626214 L474.621212,84.1626214 Z M474.621212,57.5849515 C480.694949,57.5849515 486.61048,58.2733131 492.29798,59.5720752 L492.29798,23.0339806 C492.29798,13.2480825 484.384091,5.31553398 474.621212,5.31553398 C464.858333,5.31553398 456.944444,13.2480825 456.944444,23.0339806 L456.944444,59.5720752 C462.631944,58.2733131 468.547475,57.5849515 474.621212,57.5849515 L474.621212,57.5849515 Z M474.621212,217.050971 C468.547475,217.050971 462.631944,216.362609 456.944444,215.063847 L456.944444,317.160194 C456.944444,326.946092 464.858333,334.878641 474.621212,334.878641 C484.384091,334.878641 492.29798,326.946092 492.29798,317.160194 L492.29798,215.063847 C486.61048,216.362609 480.694949,217.050971 474.621212,217.050971 L474.621212,217.050971 Z" id="control-panel-5-icon" fill="#7A7A7A" sketch:type="MSShapeGroup"></path>
            <path d="M106.060606,216.165049 C106.060606,245.522743 82.3189394,269.320388 53.030303,269.320388 C23.7425505,269.320388 0,245.522743 0,216.165049 C0,186.80824 23.7425505,163.009709 53.030303,163.009709 C82.3189394,163.009709 106.060606,186.80824 106.060606,216.165049 L106.060606,216.165049 Z M53.030303,295.898058 C46.9565657,295.898058 41.0410354,295.209697 35.3535354,293.910934 L35.3535354,329.563107 C35.3535354,339.349005 43.2674242,347.281553 53.030303,347.281553 C62.7931818,347.281553 70.7070707,339.349005 70.7070707,329.563107 L70.7070707,293.910934 C65.0195707,295.209697 59.1040404,295.898058 53.030303,295.898058 L53.030303,295.898058 Z M53.030303,136.432039 C59.1040404,136.432039 65.0195707,137.1204 70.7070707,138.419163 L70.7070707,35.4368932 C70.7070707,25.6509951 62.7931818,17.7184466 53.030303,17.7184466 C43.2674242,17.7184466 35.3535354,25.6509951 35.3535354,35.4368932 L35.3535354,138.419163 C41.0410354,137.1204 46.9565657,136.432039 53.030303,136.432039 L53.030303,136.432039 Z M195.328283,130.230583 C206.050126,130.230583 214.772727,138.97375 214.772727,149.720874 C214.772727,160.467998 206.050126,169.211165 195.328283,169.211165 C184.606439,169.211165 175.883838,160.467998 175.883838,149.720874 C175.883838,138.97375 184.606439,130.230583 195.328283,130.230583 L195.328283,130.230583 Z M195.328283,96.565534 C166.04053,96.565534 142.29798,120.364066 142.29798,149.720874 C142.29798,179.078568 166.04053,202.876214 195.328283,202.876214 C224.616919,202.876214 248.358586,179.078568 248.358586,149.720874 C248.358586,120.364066 224.616919,96.565534 195.328283,96.565534 L195.328283,96.565534 Z M195.328283,69.9878641 C201.40202,69.9878641 207.317551,70.6762257 213.005051,71.9749879 L213.005051,35.4368932 C213.005051,25.6509951 205.091162,17.7184466 195.328283,17.7184466 C185.565404,17.7184466 177.651515,25.6509951 177.651515,35.4368932 L177.651515,71.9749879 C183.339015,70.6762257 189.254545,69.9878641 195.328283,69.9878641 L195.328283,69.9878641 Z M195.328283,229.453883 C189.254545,229.453883 183.339015,228.765522 177.651515,227.46676 L177.651515,329.563107 C177.651515,339.349005 185.565404,347.281553 195.328283,347.281553 C205.091162,347.281553 213.005051,339.349005 213.005051,329.563107 L213.005051,227.46676 C207.317551,228.765522 201.40202,229.453883 195.328283,229.453883 L195.328283,229.453883 Z" id="control-panel-5-icon" fill="#7A7A7A" sketch:type="MSShapeGroup"></path>
            <path d="M700.099874,298.702888 L596.611237,194.970243 C639.612626,105.579794 574.608965,0 474.253535,0 C399.404798,0 338.510101,61.0382767 338.510101,136.064381 C338.510101,235.042282 440.772854,300.292233 529.691414,260.259175 L634.072727,364.883944 C663.760859,367.367184 702.662121,329.494005 700.099874,298.702888 L700.099874,298.702888 Z M474.253535,226.907743 C424.283965,226.907743 383.629167,186.156201 383.629167,136.064381 C383.629167,85.9752184 424.283965,45.2236772 474.253535,45.2236772 C524.226641,45.2236772 564.883207,85.9752184 564.883207,136.064381 C564.883207,186.156201 524.226641,226.907743 474.253535,226.907743 L474.253535,226.907743 Z" id="magnifier-5-icon" fill="#65C686" sketch:type="MSShapeGroup"></path>
        </g>
    </g>
</svg>