<?xml version="1.0" encoding="UTF-8" standalone="no"?>
<svg width="1000px" height="1000px" viewBox="0 0 1000 1000" version="1.1" xmlns="http://www.w3.org/2000/svg" xmlns:xlink="http://www.w3.org/1999/xlink" xmlns:sketch="http://www.bohemiancoding.com/sketch/ns">
    <title>seo-editor</title>
    <description>Created with Sketch (http://www.bohemiancoding.com/sketch)</description>
    <defs></defs>
    <g id="Page-1" stroke="none" stroke-width="1" fill="none" fill-rule="evenodd" sketch:type="MSPage">
        <rect id="Rectangle-1" stroke="#979797" fill="#F3F3F3" sketch:type="MSShapeGroup" x="-354" y="-1884" width="1602" height="3060"></rect>
        <g id="pencil-4-icon-copy-+-list-icon-copy" sketch:type="MSLayerGroup" transform="translate(297.000000, 302.000000)">
            <path d="M40.2182609,104.578313 L0,104.578313 L0,69.7188755 L40.2182609,69.7188755 L40.2182609,104.578313 L40.2182609,104.578313 Z M40.2182609,139.437751 L0,139.437751 L0,174.295446 L40.2182609,174.295446 L40.2182609,139.437751 L40.2182609,139.437751 Z M40.2182609,209.154884 L0,209.154884 L0,244.014321 L40.2182609,244.014321 L40.2182609,209.154884 L40.2182609,209.154884 Z M40.2182609,0 L0,0 L0,34.8594378 L40.2182609,34.8594378 L40.2182609,0 L40.2182609,0 Z M40.2182609,278.873759 L0,278.873759 L0,313.733197 L40.2182609,313.733197 L40.2182609,278.873759 L40.2182609,278.873759 Z M75.0008696,0 L75.0008696,34.8594378 L358.26087,34.8594378 L358.26087,0 L75.0008696,0 L75.0008696,0 Z M75.0008696,104.578313 L358.26087,104.578313 L358.26087,69.7188755 L75.0008696,69.7188755 L75.0008696,104.578313 L75.0008696,104.578313 Z M75.0008696,174.295446 L358.26087,174.295446 L358.26087,139.437751 L75.0008696,139.437751 L75.0008696,174.295446 L75.0008696,174.295446 Z M75.0008696,244.014321 L358.26087,244.014321 L358.26087,209.154884 L75.0008696,209.154884 L75.0008696,244.014321 L75.0008696,244.014321 Z M75.0008696,313.733197 L358.26087,313.733197 L358.26087,278.873759 L75.0008696,278.873759 L75.0008696,313.733197 L75.0008696,313.733197 Z" id="list-icon-copy" fill="#65C686" sketch:type="MSShapeGroup"></path>
            <path d="M498.093913,172.814385 L259.498261,411.937927 L141.73913,433.717233 L165.495652,317.721582 L404.086957,78.6015258 C457.187826,65.7967828 510.869565,119.597096 498.093913,172.814385 L498.093913,172.814385 Z M245.208696,385.337562 C252.204348,359.078819 218.229565,325.031606 192.036522,332.045325 L178.635652,397.469518 L245.208696,385.337562 L245.208696,385.337562 Z" id="pencil-4-icon-copy" fill="#7A7A7A" sketch:type="MSShapeGroup"></path>
        </g>
    </g>
</svg>